<?xml version="1.0" encoding="UTF-8"?>
<svg id="Layer_1" xmlns="http://www.w3.org/2000/svg" version="1.1" viewBox="0 0 629.16 105.37">
  <!-- Generator: Adobe Illustrator 29.6.0, SVG Export Plug-In . SVG Version: 2.1.1 Build 207)  -->
  <defs>
    <style>
      .st0 {
        fill: #d1de39;
      }

      .st1 {
        fill: #b6cc36;
      }

      .st2 {
        fill: #f7f9e1;
      }

      .st3 {
        fill: #bedd3a;
      }
    </style>
  </defs>
  <path d="M141.64,22.66h-14.65l-17.22,50.88h12.65l2.52-8.45h19.66l2.84,8.45h13.01l-18.82-50.88ZM140.86,53.96h-12.59l5.93-19.84,6.67,19.84ZM53.37,55.27l-20.59-32.61h-13.38v50.88h11.61v-32.06l20.24,32.06h13.72V22.66h-11.61v32.61ZM91.96,21.93c-11.29,0-20.47,9.18-20.47,20.47s9.18,20.47,20.47,20.47,20.47-9.18,20.47-20.47-9.18-20.47-20.47-20.47ZM91.96,51.6c-5.08,0-9.2-4.13-9.2-9.2s4.13-9.2,9.2-9.2,9.2,4.13,9.2,9.2-4.13,9.2-9.2,9.2Z"/>
  <g>
    <path d="M204.26,63.37V25.7h-7.8c-5.83,0-7.24.98-8.5,6.54h-3.02l.91-9.91c5.83.28,13.99.28,22,.28s16.09,0,22-.28l-.56,9.91h-2.95c-.14-5.13-.98-6.54-6.4-6.54h-9.28v37.67c0,5.55.91,6.82,6.61,6.82v2.53l-9.84-.07c-3.8,0-7.45.07-9.7.14v-2.53c5.62,0,6.54-1.41,6.54-6.89Z"/>
    <path d="M223.56,57.11c0-11.24,7.03-18.41,16.23-18.41,5.9,0,12.44,3.58,12.44,11.6,0,1.9-.21,2.11-1.97,2.11h-20.8c-.07.7-.07,1.26-.07,1.9,0,8.5,3.58,14.83,11.46,14.83,4.15,0,7.31-2.04,9.84-5.13l1.9,1.48c-1.69,3.37-6.61,8.43-13.49,8.43-8.93,0-15.53-6.68-15.53-16.8ZM244.57,49.38c1.12,0,1.48-.28,1.48-1.41,0-2.88-2.46-6.25-6.68-6.25-6.18,0-8.57,3.58-9.49,7.66h14.69Z"/>
    <path d="M278.66,65.34v-16.09c0-4.43-2.6-5.97-5.62-5.97-3.72,0-7.24,2.67-9.28,4.29v17.78c0,3.65.7,4.85,4.99,4.85v2.53c-1.9-.07-4.57-.07-7.87-.07s-6.04,0-7.8.07v-2.53c4.08,0,4.78-1.19,4.78-4.85v-15.88c0-4.5-.35-5.2-4.01-5.2v-2.18c2.95-.42,5.48-1.34,7.66-3.23h2.6c-.28,2.39-.35,4.15-.35,5.41,3.8-2.67,7.31-5.48,12.37-5.48,6.25,0,8.43,4.71,8.43,10.54v16.02c0,3.65.77,4.85,4.99,4.85v2.53l-7.87-.07-7.73.07v-2.53c3.94,0,4.71-1.19,4.71-4.85Z"/>
    <path d="M316.81,65.34v-16.09c0-4.43-2.6-5.97-5.62-5.97-3.72,0-7.24,2.67-9.28,4.29v17.78c0,3.65.7,4.85,4.99,4.85v2.53c-1.9-.07-4.57-.07-7.87-.07s-6.04,0-7.8.07v-2.53c4.08,0,4.78-1.19,4.78-4.85v-15.88c0-4.5-.35-5.2-4.01-5.2v-2.18c2.95-.42,5.48-1.34,7.66-3.23h2.6c-.28,2.39-.35,4.15-.35,5.41,3.8-2.67,7.31-5.48,12.37-5.48,6.25,0,8.43,4.71,8.43,10.54v16.02c0,3.65.77,4.85,4.99,4.85v2.53l-7.87-.07-7.73.07v-2.53c3.94,0,4.71-1.19,4.71-4.85Z"/>
    <path d="M334.17,66.04v-16.59c0-4.5-.35-5.2-4.01-5.2v-2.18c2.95-.42,5.48-1.34,7.73-3.23h2.53c-.28,2.46-.35,5.83-.35,8.01v19.19c0,3.8.49,4.15,4.85,4.15v2.53l-7.66-.07-7.87.07v-2.53c4.22,0,4.78-.35,4.78-4.15ZM332.84,28.65c0-2.32,1.83-4.22,4.22-4.22,2.25,0,4.22,1.9,4.22,4.22s-1.97,4.15-4.22,4.15c-2.39,0-4.22-1.76-4.22-4.15Z"/>
    <path d="M347.64,71.31l-.98-9.07h2.67c.63,4.71,3.02,8.78,7.8,8.78,4.36,0,5.76-2.6,5.76-5.06,0-4.01-3.87-5.9-6.89-7.38-5.27-2.6-8.78-5.55-8.78-10.33,0-5.48,5.06-9.49,11.24-9.49,2.74,0,5.13.49,8.36,2.25l.49,7.94h-2.6c-.63-4.92-3.09-7.17-7.03-7.17-3.02,0-5.55,1.69-5.55,4.43,0,4.22,4.78,5.76,8.36,7.8,4.92,2.81,8.29,4.78,8.29,9.7,0,5.97-4.85,10.19-12.23,10.19-3.09,0-6.4-.91-8.93-2.6Z"/>
    <path d="M391.77,68.43V29.56c0-4.5-.28-4.85-4.5-4.85v-2.04c3.23-.63,6.18-1.97,8.22-3.72h2.6c-.21,2.11-.42,5.48-.42,8.01v16.94c3.16-3.09,6.54-5.13,10.75-5.13,7.66,0,13.56,6.82,13.56,15.6,0,11.03-7.59,19.54-17.43,19.54-4.85,0-9.35-1.9-12.79-5.48ZM405.05,71.31c6.4,0,11.39-6.18,11.39-14.13s-4.5-14.2-10.12-14.2c-2.67,0-6.18,1.83-8.64,4.5v16.8c0,4.43,2.74,7.03,7.38,7.03Z"/>
    <path d="M424.12,56.62c0-10.05,7.17-17.85,16.37-17.85,10.19,0,17.36,7.24,17.36,17.36s-7.52,17.78-16.52,17.78c-9.98,0-17.22-7.31-17.22-17.29ZM451.66,57.04c0-8.71-4.78-15.6-10.89-15.6s-10.47,5.83-10.47,14.2,4.78,15.53,10.89,15.53,10.47-5.97,10.47-14.13Z"/>
    <path d="M459.69,56.62c0-10.05,7.17-17.85,16.37-17.85,10.19,0,17.36,7.24,17.36,17.36s-7.52,17.78-16.52,17.78c-9.98,0-17.22-7.31-17.22-17.29ZM487.24,57.04c0-8.71-4.78-15.6-10.89-15.6s-10.47,5.83-10.47,14.2,4.78,15.53,10.89,15.53,10.47-5.97,10.47-14.13Z"/>
    <path d="M497.32,69.48c.63-.63.84-1.9.84-4.15V29.56c0-2.25-.14-3.51-.7-4.15-.63-.63-1.76-.7-3.8-.7v-2.04c3.02-.56,6.04-1.83,8.22-3.72h2.6c-.28,2.46-.42,5.9-.42,8.01v27.9l9.77-8.08c1.83-1.48,2.67-2.6,2.67-3.3s-1.05-.98-3.16-.98v-2.74c1.55.21,4.29.21,7.31.21s5.76,0,7.24-.21v2.74c-2.11,0-3.65.49-4.99,1.12-1.41.77-2.74,1.62-4.08,2.74l-9,7.52,11.6,13.21c2.67,3.02,5.48,3.02,8.43,3.09v2.53l-2.25-.07h-6.11l-2.25.07-13.28-15.6-1.9,1.69v6.54c0,2.25.07,3.51.84,4.15.56.63,1.9.63,4.15.63v2.53h-15.67v-2.53c2.11,0,3.3,0,3.94-.63Z"/>
    <path d="M536.35,66.04v-16.59c0-4.5-.35-5.2-4.01-5.2v-2.18c2.95-.42,5.48-1.34,7.73-3.23h2.53c-.28,2.46-.35,5.83-.35,8.01v19.19c0,3.8.49,4.15,4.85,4.15v2.53l-7.66-.07-7.87.07v-2.53c4.22,0,4.78-.35,4.78-4.15ZM535.02,28.65c0-2.32,1.83-4.22,4.22-4.22,2.25,0,4.22,1.9,4.22,4.22s-1.97,4.15-4.22,4.15c-2.39,0-4.22-1.76-4.22-4.15Z"/>
    <path d="M574.29,65.34v-16.09c0-4.43-2.6-5.97-5.62-5.97-3.72,0-7.24,2.67-9.28,4.29v17.78c0,3.65.7,4.85,4.99,4.85v2.53c-1.9-.07-4.57-.07-7.87-.07s-6.04,0-7.8.07v-2.53c4.08,0,4.78-1.19,4.78-4.85v-15.88c0-4.5-.35-5.2-4.01-5.2v-2.18c2.95-.42,5.48-1.34,7.66-3.23h2.6c-.28,2.39-.35,4.15-.35,5.41,3.8-2.67,7.31-5.48,12.37-5.48,6.25,0,8.43,4.71,8.43,10.54v16.02c0,3.65.77,4.85,4.99,4.85v2.53l-7.87-.07-7.73.07v-2.53c3.94,0,4.71-1.19,4.71-4.85Z"/>
    <path d="M584.51,80.3c0-4.15,3.09-7.03,7.45-8.64-3.72-1.55-5.13-3.79-5.13-6.32,0-.7.14-1.34.28-2.04,1.97-1.05,3.94-2.11,5.2-3.23-3.65-1.9-6.18-4.5-6.18-9.7,0-6.54,4.64-11.6,13.63-11.6,2.46,0,4.57.42,6.4.91,1.9.63,4.01,1.34,6.96,1.34,1.97,0,3.02-.14,4.22-.35v4.08l-6.54-.28c.56.84,1.27,3.16,1.27,5.34,0,7.31-5.41,11.6-13.42,11.6-.98,0-2.6-.07-3.51-.21-1.69.91-2.32,1.97-2.32,3.3,0,2.53,1.48,3.37,4.71,3.37h9.49c6.11,0,10.47,2.67,10.47,8.43,0,7.73-9.91,13.07-19.19,13.07-6.33,0-13.77-3.02-13.77-9.07ZM611.99,78.41c0-4.36-4.71-5.69-10.19-5.69-7.94,0-11.88,2.67-11.88,6.61,0,4.64,4.22,6.96,9.49,6.96,5.69,0,12.58-2.25,12.58-7.87ZM606.16,50.58c0-4.5-2.53-9.21-7.17-9.21s-6.47,4.29-6.47,8.22c0,4.92,2.25,9.14,6.68,9.14,4.92,0,6.96-3.8,6.96-8.15Z"/>
  </g>
  <g>
    <g>
      <path class="st0" d="M112.42,42.4c0,4.93-1.74,9.45-4.64,12.98-.13.15-.25.3-.38.45-.02.02-.04.05-.06.08-.08.1-.17.19-.25.28-.12.14-.25.27-.38.4-.14.15-.28.29-.43.43-3.69,3.62-8.74,5.85-14.32,5.85-5.26,0-10.06-1.99-13.69-5.25-.22-.19-.43-.39-.64-.6-.14-.14-.29-.29-.43-.43-.22-.22-.43-.45-.63-.68-.02-.02-.04-.05-.06-.08-.13-.14-.25-.29-.37-.43,0,0,0-.01-.01-.02-.41-.5-.8-1.02-1.16-1.55-2.2-3.26-3.49-7.19-3.49-11.43s1.37-8.42,3.7-11.75c.11-.15.22-.3.33-.45.04-.06.08-.11.12-.17.17-.22.34-.44.51-.65.12-.15.24-.29.37-.43.48-.55.98-1.07,1.51-1.56.04-.04.08-.08.13-.12,1.13-1.03,2.37-1.93,3.7-2.69,2.98-1.69,6.42-2.65,10.09-2.65,6.05,0,11.48,2.62,15.22,6.79.07.08.14.15.2.23.13.14.25.29.37.43.18.21.35.43.51.65.04.05.08.11.12.17.11.15.22.3.33.45,2.33,3.32,3.7,7.38,3.7,11.75Z"/>
      <path class="st1" d="M112.42,42.4c0,4.93-1.74,9.45-4.64,12.98-.13.15-.25.3-.38.45-.02.02-.04.05-.06.08-.08.1-.17.19-.25.28-.12.14-.25.27-.38.4-.14.15-.28.29-.43.43-3.69,3.62-8.74,5.85-14.32,5.85-5.26,0-10.06-1.99-13.69-5.25-.22-.19-.43-.39-.64-.6-.14-.14-.29-.29-.43-.43-.22-.22-.43-.45-.63-.68-.02-.02-.04-.05-.06-.08-.13-.14-.25-.29-.37-.43,0,0,0-.01-.01-.02-.41-.5-.8-1.02-1.16-1.55-2.2-3.26-3.49-7.19-3.49-11.43s1.37-8.42,3.7-11.75c.11-.15.22-.3.33-.45.04-.06.08-.11.12-.17.17-.22.34-.44.51-.65.12-.15.24-.29.37-.43.48-.55.98-1.07,1.51-1.56.04-.04.08-.08.13-.12,1.13-1.03,2.37-1.93,3.7-2.69,2.98-1.69,6.42-2.65,10.09-2.65,6.05,0,11.48,2.62,15.22,6.79.07.08.14.15.2.23.13.14.25.29.37.43.18.21.35.43.51.65.04.05.08.11.12.17.11.15.22.3.33.45,2.33,3.32,3.7,7.38,3.7,11.75Z"/>
      <path class="st3" d="M112.42,42.4c0,4.93-1.74,9.45-4.64,12.98-.13.15-.25.3-.38.45-.02.02-.04.05-.06.08-.08.1-.17.19-.25.28-.16.11-.33.23-.5.33-3.24,2.08-7.08,3.28-11.22,3.28-5.29,0-10.12-1.97-13.78-5.22-.04-.04-.09-.08-.13-.12-.22-.2-.43-.4-.65-.61-.15-.14-.29-.29-.43-.44-.02-.02-.04-.05-.07-.07-.2-.2-.39-.41-.58-.63-.02-.03-.04-.05-.06-.08-.01-.01-.02-.03-.04-.04-.12-.14-.23-.27-.35-.41-.28-.34-.55-.69-.81-1.05-2.46-3.42-3.91-7.61-3.91-12.15,0-2.74.53-5.36,1.49-7.76.2-.5.42-.99.66-1.47.41-.83.87-1.62,1.38-2.38.02-.03.05-.07.07-.1,1.13-1.03,2.37-1.93,3.7-2.69,2.98-1.69,6.42-2.65,10.09-2.65,6.05,0,11.48,2.62,15.22,6.79.07.08.14.15.2.23.13.14.25.29.37.43.18.21.35.43.51.65.04.05.08.11.12.17.11.15.22.3.33.45,2.33,3.32,3.7,7.38,3.7,11.75Z"/>
    </g>
    <path class="st2" d="M106.73,39.57c-.73,6.13-5.71,11.2-11.85,12.06-3.53.49-7.14.49-10.62.49h-.63c-1.56,0-2.9.16-4,.49-1.13.33-2.02.83-2.66,1.51-.08.09-.16.18-.23.27-.26.33-.46.68-.6,1.02,0,0,0-.01-.01-.02-.41-.5-.8-1.02-1.16-1.55.2-.32.43-.63.72-.93t0,0h0c.72-.75,1.64-1.34,2.77-1.76,1.41-.52,3.13-.78,5.16-.78h.63c3.42,0,6.98,0,10.38-.47,5.36-.75,9.71-5.17,10.34-10.52.64-5.41-2.53-9.96-8.48-12.17-4.48-1.67-9.76-1.9-15.16-.7h0c-1.08.24-2.16.53-3.24.88-.02,0-.04.01-.06.02.04-.04.08-.08.13-.12,1.13-1.03,2.37-1.93,3.7-2.69,1.61-.31,3.21-.5,4.78-.57,0,0,.01,0,.02,0,3.71-.16,7.26.35,10.45,1.53,6.66,2.47,10.35,7.85,9.62,14.03Z"/>
  </g>
</svg>